<?xml version="1.0" standalone="no"?><!DOCTYPE svg PUBLIC "-//W3C//DTD SVG 1.1//EN" "http://www.w3.org/Graphics/SVG/1.1/DTD/svg11.dtd"><svg t="1527393315435" class="icon" style="" viewBox="0 0 1024 1024" version="1.1" xmlns="http://www.w3.org/2000/svg" p-id="793" xmlns:xlink="http://www.w3.org/1999/xlink" width="32" height="32"><defs><style type="text/css"></style></defs><path d="M512.3 512.3m-448 0a448 448 0 1 0 896 0 448 448 0 1 0-896 0Z" fill="#FFE8EB" p-id="794"></path><path d="M677.6 342.3H347c-22.1 0-40 17.9-40 40v196.3c0 22.1 17.9 40 40 40h94.9l35.2 45c19.5 24.9 51.2 25 70.8 0.3l35.8-45.2h94c22.1 0 40-17.9 40-40V382.3c-0.1-22.1-18-40-40.1-40z" fill="#FF6B6A" p-id="795"></path><path d="M439.2 486.8m-20 0a20 20 0 1 0 40 0 20 20 0 1 0-40 0Z" fill="#FF8788" p-id="796"></path><path d="M512.6 486.8m-20 0a20 20 0 1 0 40 0 20 20 0 1 0-40 0Z" fill="#FF8788" p-id="797"></path><path d="M585.9 486.8m-20 0a20 20 0 1 0 40 0 20 20 0 1 0-40 0Z" fill="#FF8788" p-id="798"></path></svg>
